<?xml version="1.0" encoding="UTF-8" standalone="no"?>
<svg
   width="304.35229"
   height="71.146942"
   viewBox="0 0 304.35229 71.146943"
   fill="none"
   version="1.1"
   id="svg4"
   sodipodi:docname="logscope_logo_white.svg"
   xml:space="preserve"
   inkscape:version="1.4 (86a8ad7, 2024-10-11)"
   xmlns:inkscape="http://www.inkscape.org/namespaces/inkscape"
   xmlns:sodipodi="http://sodipodi.sourceforge.net/DTD/sodipodi-0.dtd"
   xmlns="http://www.w3.org/2000/svg"
   xmlns:svg="http://www.w3.org/2000/svg"><defs
     id="defs4" /><sodipodi:namedview
     id="namedview4"
     pagecolor="#383838"
     bordercolor="#666666"
     borderopacity="1.0"
     inkscape:showpageshadow="2"
     inkscape:pageopacity="0.0"
     inkscape:pagecheckerboard="0"
     inkscape:deskcolor="#d1d1d1"
     inkscape:zoom="2.0930361"
     inkscape:cx="70.949565"
     inkscape:cy="77.638412"
     inkscape:window-width="1920"
     inkscape:window-height="1057"
     inkscape:window-x="1912"
     inkscape:window-y="-8"
     inkscape:window-maximized="1"
     inkscape:current-layer="svg4" /><g
     transform="translate(-11.993243,10.156679)"
     id="g4"
     style="fill:#ffffff"><rect
       x="11.993243"
       y="20.371622"
       width="10"
       height="30"
       fill="#3b82f6"
       id="rect2"
       ry="2.1499867"
       style="fill:#ffffff;fill-opacity:1" /><rect
       x="25.326576"
       y="15.507702"
       width="10"
       height="34.863922"
       fill="#3b82f6"
       id="rect3"
       style="fill:#ffffff;fill-opacity:1;stroke-width:0.933594"
       ry="1.9110994" /><rect
       x="51.993244"
       y="0.37162161"
       width="10"
       height="50"
       fill="#3b82f6"
       id="rect4"
       ry="2.0305431"
       style="fill:#ffffff;fill-opacity:1" /><rect
       x="38.659908"
       y="8.1354628"
       width="10"
       height="42.23616"
       fill="#3b82f6"
       id="rect5"
       style="fill:#ffffff;fill-opacity:1;stroke-width:0.919088"
       ry="1.9110994" /></g><path
     style="font-weight:600;font-size:53.3333px;font-family:Montserrat;-inkscape-font-specification:'Montserrat Semi-Bold';fill:#ffffff"
     d="m 56.299009,20.853643 h 6.666663 v 39.573309 h -6.666663 z m 28.213293,39.946642 q -4.319998,0 -7.786662,-1.866665 -3.466665,-1.866666 -5.439997,-5.17333 -1.919999,-3.359998 -1.919999,-7.573329 0,-4.213331 1.919999,-7.519996 1.973332,-3.306664 5.439997,-5.17333 3.466664,-1.866665 7.786662,-1.866665 4.373331,0 7.839995,1.866665 3.466665,1.866666 5.386664,5.17333 1.973332,3.306665 1.973332,7.519996 0,4.213331 -1.973332,7.573329 -1.919999,3.306664 -5.386664,5.17333 -3.466664,1.866665 -7.839995,1.866665 z m 0,-5.706663 q 3.679998,0 6.079996,-2.453332 2.399999,-2.453332 2.399999,-6.453329 0,-3.999998 -2.399999,-6.45333 -2.399998,-2.453332 -6.079996,-2.453332 -3.679998,0 -6.079997,2.453332 -2.346665,2.453332 -2.346665,6.45333 0,3.999997 2.346665,6.453329 2.399999,2.453332 6.079997,2.453332 z M 134.37896,31.946969 v 24.159986 q 0,15.039991 -15.35999,15.039991 -4.10666,0 -7.78666,-1.066666 -3.68,-1.013333 -6.08,-2.986665 l 2.98667,-5.01333 q 1.86666,1.546665 4.69333,2.453332 2.88,0.959999 5.81333,0.959999 4.69333,0 6.88,-2.133332 2.18666,-2.133332 2.18666,-6.506663 v -1.493332 q -1.70666,1.866665 -4.16,2.826665 -2.45333,0.959999 -5.38666,0.959999 -4.05333,0 -7.36,-1.706666 -3.25333,-1.759998 -5.17333,-4.906663 -1.86666,-3.146665 -1.86666,-7.199996 0,-4.053331 1.86666,-7.146662 1.92,-3.146665 5.17333,-4.853331 3.30667,-1.706665 7.36,-1.706665 3.09333,0 5.6,1.013332 2.56,1.013333 4.26666,3.093332 v -3.786665 z m -15.19999,21.546654 q 3.78667,0 6.18667,-2.239999 2.45333,-2.293331 2.45333,-5.919996 0,-3.573331 -2.45333,-5.81333 -2.4,-2.239999 -6.18667,-2.239999 -3.83999,0 -6.29333,2.239999 -2.4,2.239999 -2.4,5.81333 0,3.626665 2.4,5.919996 2.45334,2.239999 6.29333,2.239999 z m 35.52004,7.466662 q -4.32,0 -8.37333,-1.226666 -3.99999,-1.226665 -6.34666,-3.253331 l 2.4,-5.386663 q 2.29333,1.813332 5.6,2.986664 3.35999,1.12 6.71999,1.12 4.16,0 6.18666,-1.333333 2.08,-1.333332 2.08,-3.519998 0,-1.599999 -1.17333,-2.613331 -1.12,-1.066666 -2.88,-1.653333 -1.76,-0.586666 -4.8,-1.333332 -4.26666,-1.013333 -6.93332,-2.026666 -2.61334,-1.013332 -4.53334,-3.146665 -1.86666,-2.186665 -1.86666,-5.866663 0,-3.093331 1.65333,-5.599996 1.70667,-2.559999 5.06667,-4.053331 3.41333,-1.493333 8.31999,-1.493333 3.41333,0 6.72,0.853333 3.30666,0.853333 5.70666,2.453332 l -2.18667,5.386663 q -2.45333,-1.439999 -5.11999,-2.186665 -2.66667,-0.746666 -5.17333,-0.746666 -4.10667,0 -6.13333,1.386666 -1.97333,1.386666 -1.97333,3.679997 0,1.6 1.11999,2.613332 1.17334,1.013333 2.93334,1.599999 1.76,0.586667 4.79999,1.333333 4.16,0.959999 6.82667,2.026665 2.66666,1.013333 4.53333,3.146665 1.92,2.133332 1.92,5.759997 0,3.093331 -1.70667,5.599996 -1.65333,2.506665 -5.06666,3.999998 -3.41334,1.493332 -8.32,1.493332 z m 34.39996,-0.16 q -4.42666,0 -7.94666,-1.866665 -3.52,-1.866666 -5.49333,-5.17333 -1.97333,-3.359998 -1.97333,-7.573329 0,-4.213331 1.97333,-7.519996 1.97333,-3.306664 5.44,-5.17333 3.52,-1.866665 7.99999,-1.866665 4.21334,0 7.36,1.706665 3.2,1.706666 4.8,4.906664 l -5.12,2.986665 q -1.22667,-1.973332 -3.09333,-2.933332 -1.81333,-1.013333 -4,-1.013333 -3.73333,0 -6.18666,2.453332 -2.45333,2.399999 -2.45333,6.45333 0,4.053331 2.4,6.506663 2.45333,2.399998 6.23999,2.399998 2.18667,0 4,-0.959999 1.86666,-1.013333 3.09333,-2.986665 l 5.12,2.986665 q -1.65333,3.199998 -4.85333,4.959997 -3.14667,1.706665 -7.30667,1.706665 z m 30.29332,0 q -4.32,0 -7.78666,-1.866665 -3.46667,-1.866666 -5.44,-5.17333 -1.92,-3.359998 -1.92,-7.573329 0,-4.213331 1.92,-7.519996 1.97333,-3.306664 5.44,-5.17333 3.46666,-1.866665 7.78666,-1.866665 4.37333,0 7.84,1.866665 3.46666,1.866666 5.38666,5.17333 1.97333,3.306665 1.97333,7.519996 0,4.213331 -1.97333,7.573329 -1.92,3.306664 -5.38666,5.17333 -3.46667,1.866665 -7.84,1.866665 z m 0,-5.706663 q 3.68,0 6.08,-2.453332 2.4,-2.453332 2.4,-6.453329 0,-3.999998 -2.4,-6.45333 -2.4,-2.453332 -6.08,-2.453332 -3.68,0 -6.08,2.453332 -2.34666,2.453332 -2.34666,6.45333 0,3.999997 2.34666,6.453329 2.4,2.453332 6.08,2.453332 z M 256.77896,31.62697 q 4.16,0 7.41333,1.813332 3.30667,1.813332 5.17333,5.119997 1.86667,3.306664 1.86667,7.626662 0,4.319997 -1.86667,7.679995 -1.86666,3.306665 -5.17333,5.119997 -3.25333,1.813332 -7.41333,1.813332 -5.75999,0 -9.11999,-3.839997 v 13.813325 h -6.66666 V 31.946969 h 6.34666 V 35.6803 q 1.65333,-2.026665 4.05333,-3.039998 2.45333,-1.013332 5.38666,-1.013332 z m -0.74666,23.466652 q 3.68,0 6.02666,-2.453332 2.4,-2.453332 2.4,-6.453329 0,-3.999998 -2.4,-6.45333 -2.34666,-2.453332 -6.02666,-2.453332 -2.4,0 -4.32,1.12 -1.92,1.066666 -3.04,3.093331 -1.12,2.026666 -1.12,4.693331 0,2.666665 1.12,4.69333 1.12,2.026666 3.04,3.146665 1.92,1.066666 4.32,1.066666 z m 48.32001,-8.746661 q 0,0.693333 -0.10667,1.973332 h -22.34665 q 0.58667,3.146665 3.04,5.01333 2.50666,1.813333 6.18666,1.813333 4.69333,0 7.73333,-3.093332 l 3.57333,4.106664 q -1.92,2.293332 -4.85333,3.466665 -2.93333,1.173332 -6.61333,1.173332 -4.69333,0 -8.26666,-1.866665 -3.57333,-1.866666 -5.54666,-5.17333 -1.92,-3.359998 -1.92,-7.573329 0,-4.159998 1.86666,-7.466662 1.92,-3.359998 5.28,-5.226664 3.36,-1.866665 7.57333,-1.866665 4.16,0 7.41333,1.866665 3.30666,1.813332 5.11999,5.17333 1.86667,3.306665 1.86667,7.679996 z M 289.95232,36.9603 q -3.2,0 -5.44,1.919999 -2.18666,1.866665 -2.66666,5.01333 h 16.15999 q -0.42667,-3.093332 -2.61333,-5.01333 -2.18667,-1.919999 -5.44,-1.919999 z"
     id="text4"
     aria-label="logScope" /><path
     style="font-size:53.3333px;fill:none;stroke:#ffffff;stroke-width:3.6;stroke-linecap:round;stroke-linejoin:miter;stroke-dasharray:none;stroke-opacity:1"
     d="M 4.9933215,25.330412 18.968236,9.0860661 31.748714,12.788822 46.081959,1.8"
     id="path5"
     sodipodi:nodetypes="cccc" /></svg>
